<svg width="31" height="25" viewBox="0 0 31 25" fill="none" xmlns="http://www.w3.org/2000/svg">
<path d="M15.5 22.0813C23.7843 22.0813 30.5 18.9946 30.5 15.1871C30.5 11.3795 23.7843 8.29285 15.5 8.29285C7.21573 8.29285 0.5 11.3795 0.5 15.1871C0.5 18.9946 7.21573 22.0813 15.5 22.0813Z" fill="#006B99"/>
<path d="M2.24925 18.4215C2.51711 18.6526 2.81123 18.8729 3.12635 19.0878C2.3543 16.7987 2.01816 14.2624 2.09694 12.0915C1.85009 12.3172 1.63476 12.5429 1.44043 12.7793C1.44568 14.5687 1.71354 16.5462 2.24925 18.4215Z" fill="#F5F5F5"/>
<path d="M29.5598 12.7743C29.3655 12.5379 29.1449 12.3068 28.898 12.0811C29.0241 14.2735 28.5934 16.8582 27.7373 19.1741C28.0682 18.9592 28.3781 18.7335 28.6512 18.5025C29.2552 16.5949 29.565 14.5852 29.5598 12.7743Z" fill="#F5F5F5"/>
<path d="M19.5809 24.9494C16.8026 24.5571 13.9822 24.4926 11.1828 24.7721C4.73848 25.4169 2.44332 15.5404 3.36243 10.5752C3.82987 8.03894 6.59247 6.22807 8.92441 5.66385C13.1471 4.64288 17.6587 4.5784 21.9076 5.48652C24.187 5.98089 26.4402 7.56607 27.3278 9.83907C29.1765 14.5839 25.8729 25.8468 19.5809 24.9494Z" fill="#038DC9"/>
<path opacity="0.46" d="M27.322 9.83357C26.8861 8.71051 26.1088 7.75402 25.1686 7.01785C25.4838 7.44773 25.7516 7.9206 25.9459 8.42571C27.7999 13.1759 24.4964 24.4388 18.2043 23.5414C15.426 23.1491 12.6056 23.0846 9.80624 23.3641C8.27788 23.5145 6.98061 23.0739 5.90918 22.2518C7.18544 23.939 8.92914 24.9976 11.1823 24.7719C13.9817 24.4925 16.802 24.5516 19.5804 24.9493C25.8724 25.8466 29.176 14.5838 27.322 9.83357Z" fill="#005A82"/>
<path d="M21.6551 20.3224C20.5837 20.7469 19.4335 21.0102 18.3725 21.1606C15.0007 21.6335 10.9566 21.3863 7.99963 19.511C6.67085 18.6727 5.64144 17.4153 5.39459 15.8032C5.37358 15.6743 5.35257 15.5453 5.33682 15.4163C4.85888 12.3319 7.05951 9.51086 10.0952 9.26905C13.7559 8.97888 17.4377 8.97888 21.1036 9.26905C24.1393 9.51086 26.34 12.3373 25.862 15.4163C25.841 15.5399 25.8253 15.6582 25.8043 15.7817C25.4471 18.1138 23.6877 19.511 21.6551 20.3224Z" fill="#F3F3F4"/>
<path d="M18.4412 18.0763C18.4412 18.6728 17.2332 19.7045 15.7416 19.7045C14.25 19.7045 13.042 18.6674 13.042 18.0763C13.042 17.4799 14.25 17.5497 15.7416 17.5497C17.2332 17.5551 18.4412 17.4852 18.4412 18.0763Z" fill="#038DC9"/>
<path d="M11.8601 13.7421C11.8601 14.2311 11.4715 14.6288 10.9935 14.6288C10.5156 14.6288 10.127 14.2311 10.127 13.7421C10.127 13.2531 10.5156 12.8555 10.9935 12.8555C11.4715 12.8555 11.8601 13.2478 11.8601 13.7421Z" fill="#038DC9"/>
<path d="M20.8728 13.7421C20.8728 14.2311 20.4842 14.6288 20.0062 14.6288C19.5283 14.6288 19.1396 14.2311 19.1396 13.7421C19.1396 13.2531 19.5283 12.8555 20.0062 12.8555C20.4842 12.8555 20.8728 13.2531 20.8728 13.7421Z" fill="#038DC9"/>
<path d="M15.2054 5.63154L15.5048 5.63692L15.5363 4.21293L16.9124 3.77231L14.9796 3.17047L15.5626 2.85344L15.5888 1.34348L15.2895 1.33273L15.2632 2.66536L14.1865 3.2457L15.8882 3.77768L15.2369 3.98187L15.2054 5.63154Z" fill="#006B99"/>
<path d="M14.796 0.655642C14.7907 1.02641 15.0743 1.3327 15.4367 1.33808C15.7991 1.34345 16.0985 1.05328 16.1037 0.682509C16.109 0.311737 15.8254 0.00544695 15.463 7.34374e-05C15.1006 -0.00530007 14.8065 0.284869 14.796 0.655642Z" fill="#006B99"/>
<path d="M13.8448 6.05588C13.8343 6.49651 14.5696 6.87266 15.4835 6.88878C16.3974 6.9049 17.1484 6.56099 17.1537 6.12036C17.1642 5.67974 16.4289 5.30359 15.515 5.28747C14.6011 5.27135 13.8553 5.61525 13.8448 6.05588Z" fill="#006B99"/>
</svg>
